<?xml version="1.0" encoding="utf-8"?>
<!-- Generator: Adobe Illustrator 24.1.1, SVG Export Plug-In . SVG Version: 6.00 Build 0)  -->
<svg version="1.1" id="Capa_3" xmlns="http://www.w3.org/2000/svg" xmlns:xlink="http://www.w3.org/1999/xlink" x="0px" y="0px"
	 viewBox="0 0 235 235" style="enable-background:new 0 0 235 235;" xml:space="preserve">
<style type="text/css">
	.st0{fill:url(#SVGID_1_);}
</style>
<linearGradient id="SVGID_1_" gradientUnits="userSpaceOnUse" x1="39.8069" y1="230.1931" x2="230.1931" y2="39.8069">
	<stop  offset="0" style="stop-color:#5C1CB2"/>
	<stop  offset="9.224354e-02" style="stop-color:#7118B4"/>
	<stop  offset="0.2837" style="stop-color:#A90FB9"/>
	<stop  offset="0.5494" style="stop-color:#FF00C1"/>
	<stop  offset="0.6215" style="stop-color:#FE15AD"/>
	<stop  offset="0.7714" style="stop-color:#FA4D7B"/>
	<stop  offset="0.9846" style="stop-color:#F4A52A"/>
	<stop  offset="1" style="stop-color:#F4AC24"/>
</linearGradient>
<path class="st0" d="M235,100V51.4c0-9.1-7.3-16.4-16.4-16.4H170c0-19.3-15.7-35-35-35s-35,15.7-35,35H51.4C42.3,35,35,42.3,35,51.4
	V100c-19.3,0-35,15.7-35,35s15.7,35,35,35v48.6c0,9.1,7.3,16.4,16.4,16.4H100c0-19.3,15.7-35,35-35s35,15.7,35,35h48.6
	c9.1,0,16.4-7.3,16.4-16.4V170c-19.3,0-35-15.7-35-35S215.7,100,235,100z"/>
</svg>
